<svg width="23" height="25" viewBox="0 0 23 29" fill="none" xmlns="http://www.w3.org/2000/svg">
<path d="M9.89 19.3901L18.0224 11.2702L16.3829 9.63324L9.89 16.1165L6.64048 12.872L5.00097 14.509L9.89 19.3901ZM11.5 29C8.18366 28.097 5.43797 26.1479 3.26293 23.1528C1.08764 20.1578 0 16.8093 0 13.1074V4.29858L11.5 0L23 4.29858V13.1074C23 16.8093 21.9124 20.1578 19.7371 23.1528C17.562 26.1479 14.8163 28.097 11.5 29ZM11.5 26.5799C14.1578 25.7379 16.3556 24.0538 18.0933 21.5277C19.8311 19.0016 20.7 16.1948 20.7 13.1074V5.87356L11.5 2.44343L2.3 5.87356V13.1074C2.3 16.1948 3.16889 19.0016 4.90667 21.5277C6.64444 24.0538 8.84222 25.7379 11.5 26.5799Z" fill="white"/>
</svg>
