<svg width="31" height="32" viewBox="0 0 31 32" fill="none" xmlns="http://www.w3.org/2000/svg">
<path d="M15.4788 11.8181V7.09089H10.7161V4.72726H15.4788V0H17.8601V4.72726H22.6228V7.09089H17.8601V11.8181H15.4788ZM7.00831 31.1952C6.46801 30.6589 6.19786 30.008 6.19786 29.2424C6.19786 28.4766 6.46801 27.8256 7.00831 27.2893C7.54861 26.753 8.20441 26.4849 8.9757 26.4849C9.74726 26.4849 10.4032 26.753 10.9435 27.2893C11.4838 27.8256 11.7539 28.4766 11.7539 29.2424C11.7539 30.008 11.4838 30.6589 10.9435 31.1952C10.4032 31.7317 9.74726 32 8.9757 32C8.20441 32 7.54861 31.7317 7.00831 31.1952ZM22.3954 31.1952C21.8551 30.6589 21.5849 30.008 21.5849 29.2424C21.5849 28.4766 21.8551 27.8256 22.3954 27.2893C22.9357 26.753 23.5916 26.4849 24.3632 26.4849C25.1345 26.4849 25.7903 26.753 26.3306 27.2893C26.8709 27.8256 27.141 28.4766 27.141 29.2424C27.141 30.008 26.8709 30.6589 26.3306 31.1952C25.7903 31.7317 25.1345 32 24.3632 32C23.5916 32 22.9357 31.7317 22.3954 31.1952ZM0 3.93938V1.57575H4.54282L11.1677 15.4546H21.991C22.0825 15.4546 22.1639 15.4319 22.235 15.3864C22.3062 15.341 22.3673 15.2778 22.4184 15.197L28.2892 4.72726H31L24.5033 16.3756C24.2429 16.8302 23.8986 17.1842 23.4702 17.4377C23.0415 17.6914 22.5719 17.8182 22.0612 17.8182H10.4779L8.63993 21.1513C8.55843 21.2727 8.55592 21.404 8.63239 21.5453C8.70859 21.6868 8.82303 21.7576 8.9757 21.7576H27.141V24.1212H8.9757C7.91732 24.1212 7.11798 23.6721 6.57768 22.774C6.03738 21.876 6.0227 20.9675 6.53363 20.0483L8.79869 16.0061L3.02273 3.93938H0Z" fill="white"/>
</svg>
